<svg xmlns="http://www.w3.org/2000/svg" width="820" height="220" viewBox="0 0 820 220" fill="none" role="img" aria-label="amux">
  <rect width="820" height="220" rx="18" fill="#0d1117"/>
  <rect x="1" y="1" width="818" height="218" rx="17" stroke="#30363d" stroke-width="2"/>

  <!-- terminal mark -->
  <g transform="translate(48,46)">
    <rect width="128" height="128" rx="14" fill="#161b22" stroke="#30363d" stroke-width="1.5"/>
    <circle cx="20" cy="20" r="5" fill="#f85149"/>
    <circle cx="38" cy="20" r="5" fill="#d29922"/>
    <circle cx="56" cy="20" r="5" fill="#3fb950"/>
    <line x1="64" y1="40" x2="64" y2="118" stroke="#30363d" stroke-width="1.5"/>
    <line x1="10" y1="79" x2="118" y2="79" stroke="#30363d" stroke-width="1.5"/>
    <rect x="10" y="40" width="54" height="39" fill="#3fb950" fill-opacity="0.14"/>
    <rect x="10" y="40" width="54" height="39" stroke="#3fb950" stroke-opacity="0.6" stroke-width="1.5"/>
    <path d="M18 54 l6 5 -6 5" stroke="#3fb950" stroke-width="2" fill="none" stroke-linecap="round" stroke-linejoin="round"/>
    <rect x="30" y="63" width="14" height="3" rx="1.5" fill="#3fb950"/>
    <path d="M74 54 l6 5 -6 5" stroke="#6e7681" stroke-width="2" fill="none" stroke-linecap="round" stroke-linejoin="round"/>
    <path d="M18 94 l6 5 -6 5" stroke="#6e7681" stroke-width="2" fill="none" stroke-linecap="round" stroke-linejoin="round"/>
    <path d="M74 94 l6 5 -6 5" stroke="#6e7681" stroke-width="2" fill="none" stroke-linecap="round" stroke-linejoin="round"/>
  </g>

  <!-- wordmark + blinking-style cursor block -->
  <text x="210" y="118" font-family="ui-monospace,SFMono-Regular,Menlo,Consolas,monospace" font-size="72" font-weight="700" fill="#e6edf3">amux</text>
  <rect x="392" y="64" width="18" height="58" rx="2" fill="#3fb950"/>
  <text x="212" y="158" font-family="ui-monospace,SFMono-Regular,Menlo,Consolas,monospace" font-size="19" fill="#8b949e">tmux-backed orchestrator for parallel AI agents</text>
</svg>
