<svg xmlns="http://www.w3.org/2000/svg" width="820" height="220" viewBox="0 0 820 220" fill="none" role="img" aria-label="hivemux">
  <rect width="820" height="220" rx="18" fill="#0d1117"/>
  <rect x="1" y="1" width="818" height="218" rx="17" stroke="#30363d" stroke-width="2"/>
  <path d="M86.0,110.0L99.0,87.5L125.0,87.5L138.0,110.0L125.0,132.5L99.0,132.5Z" fill="#3fb950" fill-opacity="0.9" stroke="#3fb950" stroke-width="2"/>
  <path d="M127.3,133.9L140.3,111.4L166.3,111.4L179.3,133.9L166.3,156.4L140.3,156.4Z" fill="#161b22" fill-opacity="1" stroke="#30363d" stroke-width="2"/>
  <path d="M127.3,86.1L140.3,63.6L166.3,63.6L179.3,86.1L166.3,108.6L140.3,108.6Z" fill="#3fb950" fill-opacity="0.9" stroke="#3fb950" stroke-width="2"/>
  <path d="M44.7,133.9L57.7,111.4L83.7,111.4L96.7,133.9L83.7,156.4L57.7,156.4Z" fill="#161b22" fill-opacity="1" stroke="#30363d" stroke-width="2"/>
  <path d="M44.7,86.1L57.7,63.6L83.7,63.6L96.7,86.1L83.7,108.6L57.7,108.6Z" fill="#161b22" fill-opacity="1" stroke="#30363d" stroke-width="2"/>
  <path d="M86.0,157.7L99.0,135.2L125.0,135.2L138.0,157.7L125.0,180.3L99.0,180.3Z" fill="#3fb950" fill-opacity="0.9" stroke="#3fb950" stroke-width="2"/>
  <path d="M86.0,62.3L99.0,39.7L125.0,39.7L138.0,62.3L125.0,84.8L99.0,84.8Z" fill="#161b22" fill-opacity="1" stroke="#30363d" stroke-width="2"/>
  <text x="232" y="120" font-family="ui-monospace,SFMono-Regular,Menlo,Consolas,monospace" font-size="58" font-weight="700" fill="#e6edf3">hivemux</text>
  <text x="234" y="156" font-family="ui-monospace,SFMono-Regular,Menlo,Consolas,monospace" font-size="18" fill="#8b949e">tmux-backed orchestrator for parallel AI agents</text>
</svg>
