<svg xmlns="http://www.w3.org/2000/svg" width="256" height="256" viewBox="0 0 256 256" fill="none" role="img" aria-label="hivemux logo">
  <rect width="256" height="256" rx="56" fill="#0d1117"/>
  <rect x="1" y="1" width="254" height="254" rx="55" stroke="#30363d" stroke-width="2"/>
  <path d="M94.0,128.0L111.0,98.6L145.0,98.6L162.0,128.0L145.0,157.4L111.0,157.4Z" fill="#3fb950" fill-opacity="0.9" stroke="#3fb950" stroke-width="2"/>
  <path d="M148.1,159.2L165.1,129.8L199.1,129.8L216.1,159.2L199.1,188.7L165.1,188.7Z" fill="#161b22" fill-opacity="1" stroke="#30363d" stroke-width="2"/>
  <path d="M148.1,96.8L165.1,67.3L199.1,67.3L216.1,96.8L199.1,126.2L165.1,126.2Z" fill="#3fb950" fill-opacity="0.9" stroke="#3fb950" stroke-width="2"/>
  <path d="M39.9,159.2L56.9,129.8L90.9,129.8L107.9,159.2L90.9,188.7L56.9,188.7Z" fill="#161b22" fill-opacity="1" stroke="#30363d" stroke-width="2"/>
  <path d="M39.9,96.8L56.9,67.3L90.9,67.3L107.9,96.8L90.9,126.2L56.9,126.2Z" fill="#161b22" fill-opacity="1" stroke="#30363d" stroke-width="2"/>
  <path d="M94.0,190.4L111.0,161.0L145.0,161.0L162.0,190.4L145.0,219.9L111.0,219.9Z" fill="#3fb950" fill-opacity="0.9" stroke="#3fb950" stroke-width="2"/>
  <path d="M94.0,65.6L111.0,36.1L145.0,36.1L162.0,65.6L145.0,95.0L111.0,95.0Z" fill="#161b22" fill-opacity="1" stroke="#30363d" stroke-width="2"/>
</svg>
